<?xml version="1.0" encoding="utf-8"?>
<!-- Generator: Adobe Illustrator 16.0.0, SVG Export Plug-In . SVG Version: 6.00 Build 0)  -->
<!DOCTYPE svg PUBLIC "-//W3C//DTD SVG 1.1//EN" "http://www.w3.org/Graphics/SVG/1.1/DTD/svg11.dtd">
<svg version="1.1" id="Milky_Way_1_" xmlns="http://www.w3.org/2000/svg" xmlns:xlink="http://www.w3.org/1999/xlink" x="0px"
	 y="0px" width="512px" height="512px" viewBox="0 0 512 512" enable-background="new 0 0 512 512" xml:space="preserve">
<circle id="Background" fill="#323653" cx="256" cy="256" r="255.931"/>
<path id="Shadow" opacity="0.1" d="M391.955,191.421L128.029,343.223L293.957,509.15c91.82-13.846,172.848-77.333,204.559-171.378
	c3.854-11.427,6.833-22.936,9.015-34.457L391.955,191.421z"/>
<g id="Milky_Way">
	<path fill="#F4C04F" d="M328.818,190.817c17.79-8.482,36.936-16.188,45.024-14.589c-22.154-10.198-166.085,57.825-178.119,93.641
		c0.002,0,0.003,0,0.004-0.002c-11.769,14.104-13.97,25.044-6.84,30.581c0.91,1.191,2.158,2.187,3.751,2.952
		c-5.693,0.348-10.5-0.01-14.171-1.182c-27.744-9.902,18.306-53.75,78.482-87.586c-45.033,21.097-83.409,50.169-98.749,71.477
		c-19.485,27.383,2.79,42.994,55.438,28.257c23.17-6.259,55.624-21.376,73.486-33.803c-3.104,2.425-6.43,4.859-9.961,7.268
		c-21.045,14.154-45.017,26.928-68.064,35.242c-65.976,23.312-84.225,2.25-58.346-32.128c-28.324,26.966-28.943,46.698-8.667,51.755
		c26.439,6.328,88.567-13.903,142.714-48.334c20.207-12.647,36.805-25.741,48.279-37.745
		c-16.971,22.007-55.245,54.41-134.515,89.273c111.324-44.365,181.117-110.109,170.998-129.765
		c-9.57-18.599-38.431-14.521-69.646-1.876c64.551-28.862,114.375-11.221,36.326,62.219c31.031-24.449,63.679-63.274,60.151-78.19
		C392.78,184.09,365.908,180.665,328.818,190.817z"/>
	<path fill="#F2F2F2" d="M324.114,192.764c17.789-8.482,36.936-16.188,45.024-14.589C346.985,167.977,203.053,236,191.02,271.817
		c0.002-0.002,0.003-0.002,0.004-0.002c-11.769,14.104-13.97,25.042-6.84,30.579c0.909,1.193,2.158,2.188,3.751,2.952
		c-5.693,0.349-10.5-0.011-14.171-1.182c-27.744-9.902,18.306-53.75,78.482-87.586c-45.033,21.097-83.409,50.17-98.749,71.478
		c-19.484,27.383,2.789,42.994,55.437,28.257c23.17-6.259,55.626-21.376,73.487-33.802c-3.104,2.425-6.431,4.856-9.961,7.269
		c-21.045,14.151-45.017,26.925-68.064,35.242c-65.977,23.308-84.225,2.249-58.346-32.13c-28.324,26.965-28.943,46.7-8.667,51.754
		c26.44,6.33,88.568-13.902,142.715-48.332c20.207-12.65,36.804-25.743,48.279-37.746c-16.969,22.006-55.245,54.41-134.515,89.273
		c111.323-44.366,181.117-110.109,170.999-129.766c-9.571-18.6-38.434-14.52-69.647-1.875
		c64.552-28.863,114.376-11.221,36.327,62.219c31.03-24.449,63.678-63.275,60.151-78.189
		C388.075,186.037,361.205,182.612,324.114,192.764z"/>
	<path fill="#F3D089" d="M305.509,256.699c-13.415,11.696-33.565,23.058-52.519,29.541c-19.949,6.604-36.423,6.571-41.474-0.134
		c-3.842-5.388-1.316-13.869,7.793-23.997c11.986-12.778,31.922-25.583,52.578-33.913c31.267-12.445,55.905-10.996,54.464,3.709
		c-0.902,6.48-5.478,14.079-14.378,22.549c-18.822,18.049-51.265,34.399-75.626,38.625l0.419-0.218
		c-31.861,6.157-40.814-10.169-17.567-33.024c20.365-20.204,57.655-38.471,84.223-41.509c25.153-2.697,32.97,9.37,17.769,28.267
		c-18.628,23.575-65.587,47.797-96.275,50.052c-23.553,1.679-32.495-8.45-19.626-26.725c9.781-13.969,28.011-28.027,50.151-39.644
		c35.063-18.475,72.957-24.253,81.272-12.251c3.737,6.218,2.604,15.337-8.024,26.639c1.828-3.659,4.576-7.597,6.482-11.103
		c-1.021,1.109-0.703,1.722-1.726,2.831c11.864-21.25-13.543-28.313-49.091-16.958c14.286-5.237,25.142-5.794,35.585-6.139
		c-0.238-0.459-1.155-0.18-2.15-0.054c1.627,1.099,4.854,1.181,7.584,1.323c-1.575,0.036-2.808-0.297-4.042-0.629
		c2.467,0.665,5.275,0.964,7.322,1.847c-9.087-4.235-26.999-2.947-47.21,4.184c-18.953,6.48-40.075,16.989-55.788,29.749
		c-24.748,19.942-33.18,39.613-16.59,45.021c11.499,3.767,32.191,0.656,56.118-9.555c19.081-8.291,35.821-19.062,48.363-30.767
		c17.462-16.572,19.217-30.666,5.487-34.639c-9.528-3.037-25.759,0.489-43.036,6.103c7.024-2.847,13.686-4.344,19.847-5.777
		c-25.8,5.552-58.008,22.361-75.912,40.131c3.142-3.173,6.283-6.344,10.419-9.643c-29.962,23.215-30.833,45.196,0.458,42.046
		c26.884-2.427,66.113-22.079,84.748-42.556c9.709-11.02,12.68-20.698,6.767-25.988c-7.465-6.234-25.88-4.882-47.608,3.419
		c-17.797,6.66-35.013,16.511-48.208,27.973c-20.476,17.934-21.913,32.642-4.751,35.036c18.553,3.035,55.746-11.303,79.235-30.598
		c21.293-17.384,24.486-32.802,7.744-35.415c-10.313-1.468-26.124,1.84-43.37,9.572c-20.757,9.156-37.965,22.107-46.542,34.291
		c-13.471,19.167,7.241,25.357,37.726,14.48c26.058-9.176,53.115-28.759,57.677-42.556c3.23-10.201-5.751-15.265-24.055-11.64
		c-12.98,2.623-27.028,8.318-40.313,16.528c-19.675,12.283-30.112,26.008-26.737,33.577c3.69,8.181,25.511,6.234,47.604-3.417
		c-0.419,0.214-1.258,0.646-1.756,0.712c15.333-7.327,31.835-18.557,37.613-27.938c-13.658,16.743-46.647,35.12-68.865,36.302
		c-18.571,1.046-20.116-10.182-6.348-24.655c6.884-7.236,16.734-13.868,27.557-19.646c16.692-8.805,34.858-13.717,45.671-12.311
		c10.891,1.558,13.449,8.578,5.735,19.346c-10.385,14.859-36.19,30.693-59.708,37.589c-19.845,5.777-34.042,3.983-35.318-4.666
		c-2.415-12.912,24.738-36.423,55.668-48.502c24.744-9.661,44.943-9.607,48.188-0.227c1.613,5.183-1.624,12.28-9.53,20.627
		c-11.807,12.103-30.563,24.106-50.039,31.632c-19.552,7.371-36.574,9.363-44.742,4.853c-14.708-7.931,5.543-33.506,38.349-51.206
		c24.002-13.158,49.987-19.387,62.979-15.81c12.994,3.576,12.52,16.04-3.763,31.809c-14.922,14.294-37.691,27.786-60.052,34.86
		c-28.445,8.661-48.809,5.201-44.46-10.034c3.565-13.672,25.063-32.714,52.289-45.79c15.333-7.328,30.59-11.708,43.39-13.655
		c-17.521,2.056-40.508,11.005-59.922,22.765c0.261-0.522,1.179-0.801,1.599-1.018c-18.18,12.094-32.659,25.188-37.069,36.191
		c-5.581,14.904,10.589,20.526,37.751,13.495c22.417-5.938,46.576-18.79,63.255-33.794c21.498-19.042,22.462-34.668,2.207-35.856
		c-9.341-0.613-20.643,1.145-34.091,5.948c-17.876,6.509-35.669,16.27-49.363,27.794c-12.937,10.939-18.818,21.151-17.414,27.989
		c1.461,7.976,12.066,11.038,29.791,7.326c28.291-5.869,62.644-25.722,74.855-44.242c8.078-12.119,4.547-19.996-9.253-21.023
		c-14.22-0.81-35.087,6.076-54.896,17.07c-27.957,15.781-44.047,37.076-32.382,44.249c7.67,4.578,23.274,2.928,41.909-4.166
		c26.66-10.067,51.826-30.226,54.136-43.249c2.646-13.39-20.6-14.199-48.143-1.735c-24.612,10.951-44.248,28.451-44.355,39.561
		c-0.083,10.13,16.446,11.297,37.494,3.739c14.365-5.084,29.642-13.547,39.644-22.972c11.021-10.536,16.142-20.16,10.047-24.773
		c-6.752-4.856-24.69-2.584-43.22,6.778c-10.481,5.408-18.756,12.005-27.847,18.051c7.09-8.894,24.28-17.762,38.068-22.936
		c7.602-2.756,14.261-4.253,19.981-4.488c10.938-0.406,16.481,3.135,14.816,10.2c-0.983,6.327-7.996,15.373-19.783,23.395
		c0.261-0.525,1.52-1.173,1.781-1.693c-2.438,1.448-4.636,3.36-7.073,4.812c17.841-11.724,27.101-24.648,23.386-31.847
		c-4.109-7.965-26.22-4.513-47.681,6.365c-11.319,5.839-20.933,12.932-27.396,19.953c-11.75,13.235-5.751,21.778,12.867,18.768
		c18.199-2.793,42.883-16.689,52.718-29.522c10.178-13.203-0.437-19.365-21.119-13.156c-18.351,5.587-38.73,19.592-42.04,29.64
		c-1.902,6.604,4.06,9.931,16.123,7.587c18.721-3.841,41.198-18.929,44.847-29.343c3.469-9.743-13.161-10.083-31.508-1.396
		c11.979-5.596,21.079-5.444,25.57-2.912c5.725,2.866,1.886,10.858-8.825,18.905c-11.053,8.418-26.86,14.824-37.038,14.646
		c-13.326-0.106-10.412-10.921,3.68-21.681c12.99-9.804,30.472-17.077,42.645-17.15c10.101,0.026,12.708,5.081,7.793,13.049
		c-8.187,12.949-33.967,27.799-52.322,30.288c-16.365,2.234-22.546-5.632-10.402-18.103c10.026-10.408,27.66-20.475,43.417-24.917
		c8.416-2.209,15.131-2.571,19.646-1.022c12.154,4.011-0.033,21.547-22.698,34.208c-13.18,7.383-27.203,12.096-37.723,12.285
		c-12.67,0.136-16.33-5.931-9.793-15.894c7.219-10.707,24.48-22.521,42.541-29.705c27.758-11.022,46.262-6.021,36.931,9.847
		c-5.097,8.642-16.594,18.259-30.951,26.439c-16.037,9.049-32.552,14.08-44.803,13.997c-14.561-0.44-16.755-8.812-7.18-21.121
		c10.516-13.571,34.881-28.08,56.144-34.2c27.686-8.077,40.297,0.934,26.954,18.291c-14.546,19.143-52.696,38.822-77.066,39.95
		c-14.505,0.694-21.075-4.838-17.188-14.796c5.559-13.922,31.2-33.161,57.439-43.012c17.379-6.444,32.748-8.554,40.939-5.021
		c11.551,4.9,5.812,19.499-13.279,34.972c-19.851,16.061-48.47,28.498-69.216,30.472c-18.754,1.721-25.932-6.018-19.662-18.563
		c8.074-15.219,34.292-34.369,61.789-44.869c23.067-8.797,42.474-10.275,49.678-3.517c9.228,8.623-4.085,28.098-30.674,45.499
		c-31.727,20.825-70.712,30.66-83.063,21.127c-12.927-9.624,8.423-36.154,42.906-54.719c27.434-14.735,57.326-21.62,70.01-15.557
		c17.276,7.766-2.104,35.028-37.709,55.53c-38.125,21.801-79.325,27.344-84.498,12.169c-3.959-10.76,11.084-29.963,36.415-46.715
		c13.127-8.518,27.382-15.87,42.087-21.325c24.063-8.922,43.89-10.616,54.108-5.22c9.796,5.614,7.751,18.113-6.438,32.803
		c1.646-2.984,4.631-6.462,5.858-9.228c0.34-0.371-0.262,0.521,0.078,0.151c11.004-19.832-5.285-30.825-39.813-20.579
		c3.567-0.288,7.397-1.101,10.545-1.172c-0.42,0.217-0.42,0.217-0.838,0.432c6.293-0.144,12.589-0.287,17.786,0.523
		c-0.578-0.09-0.817-0.549-1.813-0.423c16.98,3.07,15.781,18.237-2.964,36.44c-19.766,19.313-52.865,35.419-79.765,41.924
		c33.039-6.955,77.554-32.829,90.334-54.359c7.085-11.994,5.569-21.104-6.87-23.608c-11.941-2.568-31.161,1.336-51.554,9.14
		c0.34-0.372,1.179-0.802,1.598-1.02c-0.497,0.063-0.497,0.063-0.997,0.127c0.916-0.28,1.181-0.802,2.02-1.235
		c-28.755,11.149-55.995,31.408-65.248,47.428c-5.097,8.642-5.765,15.582-0.902,19.862c13.773,12.291,65.969-2.805,99.991-29.474
		c28.442-22.041,33.354-43.39,6.623-43.757c-15.479-0.162-36.085,6.203-56.55,16.953c-32.963,17.393-54.211,43.096-43.855,52.879
		c-0.077-0.15-0.656-0.243-0.734-0.395c8.112,3.377,18.9,5.765,35.811,1.503c-2.491,0.316-4.904,0.781-7.996,1.991
		c11.801-1.82,26.007-7.21,39.923-14.194l-0.342,0.369c31.186-15.699,52.961-39.344,47.532-50.898
		c-4.268-8.271-22.212-9.1-45.097-0.978c-13.945,4.865-27.94,11.696-40.567,20.149c-20.378,14.006-32.28,30.037-27.436,38.398
		c4.291,7.289,19.667,8.282,40.272,1.918c25.532-8.13,52.781-25.287,63.686-41.195c6.273-9.443,5.106-15.823-1.432-19.238
		c-9.244-4.542-29.54-0.666-50.139,8.797c-19.684,9.184-36.628,21.612-44.788,33.578c-13.05,18.95,6.821,25.57,37.726,14.48
		c15.625-5.732,30.978-14.041,42.817-24.026c8.117-6.903,12.824-13.213,14.781-18.682c5.241-14.535-17.377-17.22-46.338-4.413
		c-23.693,10.67-42.885,26.972-45.484,38.399c-2.078,10.38,12.988,13.856,34.115,6.45c-0.735-0.396-2.672,0.992-3.748,0.966
		c20.002-5.473,44.131-20.442,53.89-33.428c11.822-16.184-2.332-23.042-28.627-14.327c-24.537,8.004-48.081,26.163-49.445,37.921
		c-0.303,5.588,4.007,8.797,13.291,8.273c17.495-1.074,44.226-14.087,56.576-28.218c10.052-11.389,5.681-18.832-8.93-17.309
		c-9.547,1.044-21.158,5.29-32.503,12.111c-13.362,8.058-21.369,17.231-20.518,22.997c0.93,5.921,12.423,6.587,26.63,1.198
		c7.521-2.911,14.991-6.957,21.146-11.49c7.332-5.335,12.935-10.941,13.11-14.715c0.041-5.065-4.742-9.191-15.648-6.667
		c0.498-0.064,1.493-0.19,1.651,0.117c-0.417,0.217-1.257,0.649-1.676,0.865c7.214-0.424,12.567,0.693,12.707,5.083
		c-0.041,5.064-6.348,12.388-16.774,18.93c-18.079,11.266-39.188,14.593-39.889,6.032c-0.084-3.254,2.005-7.434,6.506-12.084
		c8.743-8.777,23.341-16.501,36.344-20.105c19.585-5.254,27.523,1.9,17.446,14.272c-8.448,10.37-26.343,20.962-42.6,25.467
		c-15.335,4.228-25.465,2.083-24.197-5.747c1.213-8.967,17.947-22.835,37.106-30.974c19.997-8.571,37.232-9.122,37.252,0.178
		c0.067,7.334-10.299,18.113-25.757,27.251c-15.799,9.508-33.808,14.727-44.122,13.259c-13.039-1.612-10.678-13.501,4.877-26.567
		c15.973-13.283,39.744-23.8,55.825-24.531c15.004-0.758,20.132,6.1,11.895,17.914c-9.703,14.122-34.67,29.523-57.086,35.463
		c-12.585,3.389-22.107,3.452-27.073,0c-9.432-6.965,3.934-25.303,28.877-39.722c23.345-13.402,50.167-20.063,59.021-13.187
		c6.255,4.921,3.626,14.227-8.575,25.565c-17.12,16.202-46.027,30.147-67.035,32.641c-21.426,2.715-28.215-7.359-15.578-22.996
		c13.316-16.374,41.718-33.351,67.36-39.21c15.236-3.398,25.73-2.605,29.99,2.567c5.786,7.1-3.258,21.465-21.228,34.999
		c-15.007,11.043-34.032,20.469-51.363,24.946c-21.998,5.723-36.248,2.798-35.982-8.008c0.296-8.687,9.611-20.475,25.457-31.946
		c13.148-9.498,29.001-17.871,44.442-22.927c14.942-4.991,27.898-6.633,36.297-4.759c14.908,3.171,13.991,16.832-3.811,33.774
		c-20.603,19.744-56.114,36.316-81.029,39.471c0.42-0.216,0.837-0.432,0.918-0.278c-27.407,3.473-34.494-11.297-14.444-32.116
		c20.047-20.814,59.279-40.47,86.502-43.265c27.724-2.858,33.553,12.559,12.246,34.025c-17.829,17.925-48.72,35.217-76.118,41.789
		c-17.988,4.236-30.555,3.543-36.967-1.683c-6.57-5.532-3.837-15.672,5.975-27.52c11.932-13.915,32.154-28.226,54.849-38.771
		c25.292-11.688,49.258-16.682,63.167-13.384c16.797,3.748,15.573,19.895-4.01,38.532c5.705-6.436,9.915-12.68,11.871-18.148
		c-1.542,2.152-2.17,4.026-3.292,5.963c0.206-1.657,1.827-3.659,2.454-5.53c0.079,0.15,0.079,0.15,0.158,0.304
		c0.339-0.369,0.181-0.675,0.942-1.26c-3.294,5.965-6.429,12.235-12.553,18.887c24.821-22.89,20.478-41.598-8.794-39.685
		c-21.141,1.209-49.135,11.771-73.946,27.48c-21.612,13.669-36.561,28.944-39.579,40.588c-2.13,9.246,2.604,15.337,14.491,16.768
		c24.43,3.107,73.783-17.5,99.23-42.268c13.062-12.75,18.31-24.186,12.839-30.673c-5.784-7.101-22.993-7.534-44.858-0.521
		c-25.953,8.346-54.196,25.63-67.932,42.221c-11.435,13.853-11.202,24.595,1.055,27.775c14.306,4.062,43.644-3.897,69.845-18.966
		c32.334-18.618,50.488-43.111,36.617-51.473c-13.213-8.12-50.126,1.615-79.915,21.053c-13.463,8.887-23.125,17.941-28.719,26.649
		c-12.575,19.87,8.608,26.979,42.267,15.045c16.541-6.01,33.496-15.338,46.585-25.974c25.771-21.049,23.215-38.352-3.93-35.403
		c-18.098,1.966-42.784,12.762-60.91,25.992c-22.343,16.374-29.388,33.587-14.664,37.433c7.899,1.937,20.356,0.359,34.303-4.509
		c20.631-7.343,41.901-20.646,52.317-33.387c8.791-10.741,8.247-18.996-1.12-21.727c-12.419-3.487-39.447,4.833-60.483,18.593
		c-8.749,5.678-15.348,11.409-20.215,17.411c-10.492,12.588-7.641,21.204,7.339,21.428c8.944-0.154,18.935-2.396,31.147-7.533
		c18.242-7.861,33.487-18.439,41.701-29.271c5.311-7.201,6.111-12.851,2.143-16.429c-6.071-5.595-24.769-2.737-44.031,6.229
		c-24.872,11.473-43.9,31.181-36.723,38.921c4.601,4.802,17.689,4.451,33.654-1.649c12.45-4.679,24.214-11.72,33.271-19.881
		c10.502-9.49,12.427-17.076,6.805-20.771c-8.406-4.975-31.897,0.938-50.341,13.555c-8.331,5.462-15.426,11.256-18.877,16.916
		c-6.3,10.424,1.688,15.617,17.996,12.246c11.983-2.496,25.557-9.113,36.349-17.007c8.773-6.661,14.32-13.4,14.861-18.528
		c0.406-6.416-6.734-8.939-19.558-6.01c-15.652,3.615-34.125,14.113-42.077,24.423c-8.817,11.723,1.479,17.272,21.111,10.055
		c15.127-5.668,30.553-16.926,32.398-24.665c0.937-4.361-2.901-6.65-8.174-7.614c0.839-0.433,1.335-0.495,2.254-0.774
		c-3.408,0.596-6.059,0.604-9.466,1.198c11.27-3.874,19.249-1.785,18.789,3.498c-0.279,4.603-4.646,10.542-12.661,16.617
		c-10.294,7.831-25.103,14.111-36.063,15.501c-11.042,1.235-15.066-3.478-10.91-10.857c4.052-6.554,12.587-13.674,23.412-19.449
		c11.999-6.58,24.084-9.904,32.689-9.688c9.263,0.459,12.211,5.145,7.714,12.895c-4.914,7.966-16.308,16.752-29.802,23.521
		c-24.896,12.453-47.064,11.673-43.444-0.865c2.525-8.477,16.141-20.156,32.335-28.898c15.436-8.156,29.751-11.273,40.586-10.852
		c10.415,0.639,11.741,7.326,6.069,15.877c-7.74,11.753-27.047,25.784-47.256,32.912c-10.853,3.659-20.924,5.75-28.189,5.038
		c1.052,1.009,4.38,0.26,6.191,0.686c-13.509,0.567-19.319-5.551-14.355-15.48c6.402-11.256,23.95-24.575,44.289-33.515
		c15.228-6.499,28.706-9.184,37.443-7.68c14.593,2.559,10.766,16.749-7.487,31.793c-19.431,15.843-48.13,28.127-67.174,28.253
		c-14.245,0.172-19.218-6.382-13.993-16.833c4.521-8.732,15.621-19.114,31.078-28.251c22.769-13.491,48.122-20.945,61.793-18.107
		c9.553,2.054,11.956,8.768,6.675,18.085c-7.265,12.671-27.091,27.748-50.024,37.833c-19.917,8.726-38.719,12.41-48.484,8.916
		c-9.032-3.102-10.675-10.4-3.455-21.105c13.674-20.826,54.552-43.464,83.713-47.647c29.661-4.246,37.146,11.29,12.165,33.873
		c-19.898,18.024-51.004,33.877-74.763,37.212c0.997-0.127,2.412-0.471,3.749-0.966c-15.629,2.634-29.013,1.39-31.231-5.999
		c-2.457-7.85,3.971-20.086,20.602-33.127c12.412-9.893,27.688-18.358,43.495-24.765c22.487-8.886,42.08-11.041,50.881-5.3
		c9.116,6.351,5.338,18.58-11.603,34.106c-21.261,19.504-55.693,36.104-81.448,39.689c-17.361,2.363-27.862-1.53-29.561-9.964
		c-1.75-9.569,10.127-24.619,28.514-38.371c14.091-10.761,31.961-20.367,49.158-26.135c-2.097,1.081-4.012,1.488-6.027,2.721
		c1.495-0.188,2.753-0.838,4.509-1.549c-0.341,0.369-1.258,0.649-0.84,0.432c36.595-13.447,68.002-11.223,58.887,9.189
		c0.335-3.47,0.748-6.788-0.175-9.606c2.084,6.101,1.652,13.498-7.036,23.413c2.906-3.633,3.975-6.707,7.375-10.401
		c-1.542,2.154-1.748,3.812-3.292,5.967c13.841-17.419,7.756-29.216-13.178-29.665c-19.701-0.117-46.993,8.726-72.617,23.883
		c-16.217,9.724-29.469,20.051-37.84,30.577c-13.921,17.267-10.746,29.594,8.93,30.692c20.097,0.879,52.075-10.187,77.751-27.309
		c14.145-9.624,24.904-19.636,30.842-28.712c-8.525,13.321-28.795,29.595-52.172,40.877c-25.052,12.15-50.355,17.639-63.926,13.973
		c-20.814-5.362-7.176-31.403,26.407-53.771c23.996-16.257,53.589-27.839,75.332-29.94c25.232-2.542,31.735,9.037,23.637,25.238
		c0.023-0.98,1.466-2.305,1.071-3.074c-2.458,5.535-9.657,12.16-14.024,18.1c4.501-4.651,8.507-9.238,11.513-13.698
		c0.238,0.458-0.941,1.26-0.782,1.566c13.731-19.69,2.528-32.143-26.896-27.437c-23.023,3.731-51.226,15.952-73.803,31.866
		c-20.982,14.897-33.802,31.207-32.074,41.758c2.129,14.421,31.773,14.254,66.681-1.427c26.288-11.813,50.228-29.208,58.879-44.336
		c6.324-11.41,3.631-19.717-8.151-21.979c-17.557-3.161-50.434,7.202-77.442,24.821c-23.811,15.581-37.336,33.613-33.355,43.391
		c4.986,12.751,40.443,8.423,73.931-10.018c21.563-11.706,38.742-26.773,44.172-38.883c7.023-16.231-10.121-22.708-39.222-14.29
		c-21.683,6.335-44.924,18.908-60.843,33.327c-22.438,20.304-19.519,36.254,5.949,34.168c18.832-1.565,45.174-12.245,65.062-26.603
		C300.298,261.03,303.075,258.785,305.509,256.699z"/>
	<path fill="#323653" d="M297.34,256.06c-10.422,9.086-26.076,17.913-40.798,22.949c-15.498,5.129-28.295,5.104-32.219-0.104
		c-2.985-4.187-1.022-10.774,6.054-18.642c9.312-9.928,24.798-19.875,40.846-26.346c24.289-9.668,43.43-8.542,42.311,2.881
		c-0.701,5.034-4.256,10.937-11.171,17.517c-14.622,14.022-39.824,26.723-58.75,30.004l0.326-0.167
		c-24.751,4.781-31.707-7.9-13.647-25.655c15.82-15.695,44.79-29.886,65.429-32.246c19.54-2.095,25.612,7.279,13.803,21.958
		c-14.47,18.315-50.951,37.132-74.79,38.883c-18.297,1.306-25.244-6.564-15.247-20.761c7.599-10.852,21.76-21.772,38.96-30.797
		c27.239-14.352,56.676-18.841,63.137-9.517c2.903,4.83,2.021,11.915-6.234,20.694c1.421-2.842,3.555-5.902,5.035-8.625
		c-0.793,0.86-0.546,1.336-1.341,2.198c9.218-16.507-10.521-21.995-38.136-13.173c11.099-4.068,19.533-4.501,27.645-4.769
		c-0.185-0.356-0.897-0.14-1.671-0.042c1.265,0.853,3.771,0.917,5.892,1.029c-1.223,0.027-2.181-0.232-3.141-0.49
		c1.918,0.517,4.099,0.749,5.689,1.436c-7.058-3.291-20.976-2.289-36.675,3.25c-14.723,5.034-31.132,13.198-43.339,23.11
		c-19.225,15.492-25.775,30.772-12.887,34.975c8.933,2.925,25.007,0.51,43.595-7.423c14.823-6.441,27.827-14.809,37.569-23.902
		c13.566-12.874,14.929-23.823,4.264-26.909c-7.402-2.358-20.012,0.379-33.432,4.74c5.456-2.211,10.631-3.374,15.418-4.488
		c-20.044,4.313-45.064,17.371-58.973,31.175c2.442-2.464,4.881-4.928,8.095-7.49c-23.276,18.034-23.952,35.11,0.355,32.663
		c20.885-1.883,51.359-17.152,65.836-33.059c7.541-8.561,9.849-16.079,5.256-20.189c-5.8-4.843-20.104-3.793-36.984,2.656
		c-13.826,5.174-27.199,12.826-37.45,21.73c-15.907,13.932-17.023,25.357-3.692,27.219c14.414,2.355,43.306-8.78,61.555-23.771
		c16.539-13.504,19.021-25.481,6.016-27.512c-8.013-1.141-20.297,1.429-33.692,7.436c-16.125,7.113-29.493,17.173-36.157,26.637
		c-10.464,14.891,5.625,19.7,29.306,11.249c20.244-7.127,41.264-22.34,44.808-33.058c2.509-7.924-4.468-11.858-18.688-9.042
		c-10.083,2.037-20.997,6.462-31.315,12.84c-15.284,9.542-23.393,20.204-20.771,26.085c2.866,6.354,19.818,4.843,36.981-2.657
		c-0.327,0.169-0.978,0.505-1.366,0.555c11.913-5.692,24.732-14.416,29.221-21.703c-10.61,13.006-36.238,27.282-53.497,28.199
		c-14.426,0.813-15.626-7.908-4.931-19.152c5.348-5.621,13-10.773,21.407-15.261c12.967-6.84,27.081-10.656,35.48-9.565
		c8.459,1.211,10.446,6.664,4.453,15.029c-8.064,11.543-28.114,23.844-46.381,29.201c-15.417,4.489-26.446,3.095-27.438-3.624
		c-1.875-10.031,19.218-28.295,43.245-37.678c19.224-7.505,34.914-7.463,37.437-0.177c1.252,4.026-1.262,9.541-7.403,16.024
		c-9.174,9.401-23.745,18.728-38.873,24.573c-15.189,5.728-28.412,7.273-34.758,3.77c-11.426-6.161,4.306-26.029,29.791-39.778
		c18.646-10.222,38.832-15.06,48.924-12.282c10.094,2.779,9.727,12.461-2.923,24.71c-11.593,11.104-29.28,21.585-46.65,27.08
		c-22.098,6.729-37.917,4.04-34.54-7.796c2.771-10.619,19.47-25.412,40.622-35.57c11.91-5.693,23.764-9.095,33.706-10.607
		c-13.611,1.597-31.468,8.549-46.55,17.685c0.203-0.406,0.916-0.622,1.242-0.791c-14.123,9.395-25.371,19.567-28.797,28.115
		c-4.336,11.579,8.226,15.945,29.327,10.484c17.414-4.614,36.183-14.596,49.14-26.254c16.699-14.792,17.448-26.931,1.713-27.854
		c-7.256-0.476-16.035,0.889-26.481,4.621c-13.889,5.057-27.71,12.639-38.349,21.591c-10.05,8.498-14.618,16.432-13.527,21.744
		c1.135,6.196,9.373,8.574,23.143,5.69c21.979-4.56,48.664-19.983,58.149-34.369c6.277-9.415,3.533-15.533-7.188-16.331
		c-11.046-0.63-27.256,4.72-42.644,13.261c-21.718,12.258-34.217,28.8-25.157,34.374c5.958,3.556,18.081,2.273,32.557-3.237
		c20.71-7.82,40.262-23.479,42.056-33.596c2.055-10.401-16.003-11.031-37.4-1.348c-19.119,8.507-34.374,22.101-34.457,30.732
		c-0.064,7.87,12.776,8.775,29.126,2.904c11.159-3.949,23.027-10.523,30.797-17.846c8.562-8.185,12.54-15.66,7.806-19.245
		c-5.245-3.772-19.182-2.007-33.574,5.266c-8.143,4.2-14.572,9.326-21.634,14.023c5.508-6.91,18.863-13.798,29.574-17.818
		c5.904-2.141,11.078-3.304,15.521-3.486c8.498-0.316,12.805,2.435,11.51,7.923c-0.764,4.915-6.212,11.942-15.367,18.174
		c0.203-0.406,1.179-0.91,1.382-1.315c-1.893,1.126-3.601,2.609-5.493,3.739c13.859-9.109,21.052-19.149,18.167-24.742
		c-3.193-6.188-20.369-3.505-37.04,4.944c-8.794,4.536-16.262,10.046-21.283,15.5c-9.128,10.282-4.468,16.92,9.996,14.58
		c14.138-2.169,33.314-12.965,40.954-22.934c7.906-10.257-0.338-15.044-16.406-10.22c-14.255,4.34-30.087,15.221-32.659,23.026
		c-1.477,5.131,3.155,7.714,12.525,5.894c14.544-2.983,32.005-14.704,34.841-22.795c2.693-7.568-10.226-7.833-24.478-1.084
		c9.305-4.348,16.376-4.229,19.864-2.262c4.447,2.226,1.465,8.435-6.855,14.686c-8.588,6.541-20.867,11.517-28.773,11.378
		c-10.353-0.083-8.088-8.483,2.858-16.842c10.092-7.617,23.672-13.267,33.128-13.324c7.846,0.021,9.873,3.948,6.055,10.138
		c-6.36,10.059-26.387,21.595-40.647,23.527c-12.712,1.738-17.515-4.371-8.081-14.063c7.788-8.084,21.488-15.905,33.728-19.356
		c6.537-1.716,11.755-1.997,15.262-0.793c9.442,3.116-0.026,16.738-17.632,26.573c-10.241,5.735-21.134,9.397-29.306,9.544
		c-9.842,0.105-12.686-4.606-7.607-12.348c5.607-8.316,19.017-17.495,33.047-23.075c21.563-8.563,35.938-4.678,28.689,7.649
		c-3.96,6.713-12.892,14.184-24.046,20.541c-12.456,7.029-25.286,10.938-34.803,10.872c-11.312-0.343-13.017-6.844-5.577-16.407
		c8.169-10.543,27.097-21.814,43.613-26.568c21.508-6.274,31.306,0.726,20.941,14.209c-11.301,14.871-40.938,30.16-59.869,31.035
		c-11.268,0.539-16.373-3.758-13.352-11.494c4.318-10.815,24.236-25.761,44.622-33.413c13.5-5.006,25.438-6.645,31.803-3.901
		c8.973,3.806,4.515,15.147-10.316,27.167c-15.421,12.477-37.653,22.138-53.77,23.673c-14.569,1.336-20.145-4.674-15.275-14.421
		c6.272-11.823,26.64-26.699,48.001-34.856c17.918-6.834,32.995-7.981,38.592-2.732c7.168,6.699-3.173,21.828-23.829,35.346
		c-24.646,16.179-54.933,23.818-64.527,16.414c-10.042-7.478,6.544-28.087,33.332-42.509c21.313-11.446,44.533-16.796,54.386-12.085
		c13.422,6.033-1.633,27.212-29.293,43.137c-29.618,16.937-61.623,21.242-65.642,9.455c-3.075-8.358,8.612-23.276,28.289-36.29
		c10.197-6.617,21.271-12.33,32.695-16.566c18.692-6.931,34.096-8.248,42.034-4.055c7.609,4.361,6.021,14.071-5.002,25.482
		c1.279-2.318,3.597-5.02,4.551-7.168c0.264-0.288-0.204,0.406,0.062,0.118c8.549-15.407-4.106-23.946-30.929-15.986
		c2.771-0.225,5.746-0.855,8.191-0.911c-0.326,0.168-0.326,0.168-0.652,0.336c4.891-0.111,9.781-0.223,13.818,0.406
		c-0.449-0.07-0.634-0.427-1.407-0.329c13.189,2.385,12.258,14.167-2.304,28.308c-15.354,15.003-41.066,27.516-61.964,32.569
		c25.666-5.403,60.248-25.503,70.176-42.229c5.502-9.318,4.326-16.395-5.337-18.34c-9.277-1.995-24.208,1.038-40.05,7.1
		c0.264-0.288,0.915-0.623,1.24-0.792c-0.386,0.049-0.386,0.049-0.773,0.098c0.711-0.217,0.916-0.623,1.568-0.958
		c-22.338,8.661-43.499,24.398-50.688,36.846c-3.96,6.712-4.478,12.103-0.701,15.428c10.7,9.548,51.248-2.179,77.678-22.895
		c22.095-17.125,25.912-33.708,5.145-33.994c-12.023-0.125-28.032,4.819-43.93,13.17c-25.607,13.512-42.114,33.478-34.069,41.078
		c-0.061-0.117-0.509-0.188-0.57-0.307c6.302,2.624,14.683,4.479,27.819,1.168c-1.935,0.246-3.81,0.607-6.211,1.546
		c9.167-1.412,20.203-5.599,31.012-11.024l-0.265,0.286c24.227-12.196,41.144-30.565,36.925-39.541
		c-3.315-6.425-17.254-7.069-35.033-0.76c-10.833,3.78-21.705,9.086-31.514,15.654c-15.831,10.879-25.077,23.334-21.313,29.83
		c3.333,5.661,15.277,6.434,31.285,1.489c19.836-6.316,41.001-19.644,49.472-32.002c4.874-7.336,3.968-12.292-1.11-14.944
		c-7.181-3.528-22.948-0.517-38.951,6.833c-15.29,7.135-28.454,16.79-34.792,26.085c-10.138,14.723,5.299,19.866,29.306,11.249
		c12.138-4.451,24.066-10.907,33.264-18.663c6.305-5.364,9.963-10.265,11.482-14.514c4.072-11.292-13.5-13.377-35.997-3.428
		c-18.406,8.289-33.315,20.953-35.334,29.829c-1.614,8.063,10.089,10.764,26.501,5.012c-0.572-0.309-2.074,0.771-2.91,0.75
		c15.539-4.25,34.282-15.88,41.863-25.967c9.185-12.573-1.812-17.9-22.238-11.13c-19.061,6.218-37.352,20.324-38.411,29.46
		c-0.235,4.341,3.112,6.832,10.325,6.426c13.59-0.834,34.356-10.944,43.95-21.92c7.81-8.848,4.412-14.63-6.937-13.446
		c-7.415,0.812-16.437,4.108-25.25,9.408c-10.38,6.259-16.601,13.385-15.938,17.866c0.723,4.598,9.65,5.116,20.687,0.93
		c5.844-2.262,11.646-5.405,16.427-8.927c5.696-4.145,10.049-8.499,10.187-11.431c0.031-3.935-3.684-7.14-12.157-5.179
		c0.388-0.05,1.16-0.147,1.283,0.09c-0.325,0.169-0.977,0.504-1.302,0.673c5.604-0.329,9.763,0.539,9.871,3.948
		c-0.031,3.934-4.931,9.624-13.03,14.707c-14.046,8.751-30.444,11.337-30.988,4.686c-0.066-2.527,1.557-5.775,5.054-9.387
		c6.793-6.819,18.132-12.819,28.234-15.619c15.214-4.082,21.381,1.476,13.553,11.087c-6.563,8.056-20.464,16.284-33.094,19.786
		c-11.914,3.282-19.782,1.616-18.798-4.466c0.943-6.966,13.942-17.74,28.826-24.063c15.535-6.658,28.925-7.086,28.938,0.139
		c0.053,5.697-8,14.071-20.009,21.171c-12.272,7.386-26.264,11.439-34.275,10.3c-10.13-1.253-8.295-10.487,3.789-20.639
		c12.408-10.318,30.875-18.489,43.367-19.056c11.654-0.589,15.64,4.738,9.241,13.916c-7.537,10.97-26.935,22.934-44.349,27.548
		c-9.776,2.633-17.174,2.683-21.031,0c-7.327-5.409,3.056-19.654,22.434-30.856c18.137-10.411,38.973-15.585,45.851-10.244
		c4.858,3.823,2.815,11.052-6.662,19.86c-13.3,12.585-35.757,23.419-52.076,25.356c-16.645,2.109-21.92-5.717-12.102-17.863
		c10.345-12.721,32.409-25.91,52.328-30.461c11.837-2.64,19.99-2.024,23.298,1.994c4.496,5.515-2.529,16.675-16.49,27.19
		c-11.657,8.575-26.438,15.899-39.901,19.377c-17.089,4.446-28.159,2.174-27.952-6.221c0.23-6.748,7.466-15.905,19.776-24.816
		c10.215-7.379,22.529-13.884,34.524-17.812c11.608-3.877,21.673-5.153,28.197-3.697c11.58,2.464,10.869,13.076-2.961,26.237
		c-16.004,15.339-43.593,28.213-62.947,30.664c0.326-0.169,0.652-0.336,0.714-0.216c-21.291,2.696-26.797-8.776-11.221-24.949
		c15.574-16.17,46.051-31.441,67.199-33.61c21.537-2.222,26.065,9.755,9.514,26.431c-13.85,13.925-37.848,27.358-59.133,32.465
		c-13.974,3.291-23.736,2.751-28.717-1.309c-5.104-4.297-2.981-12.173,4.642-21.379c9.27-10.809,24.979-21.925,42.61-30.118
		c19.647-9.081,38.266-12.959,49.071-10.397c13.048,2.912,12.097,15.455-3.115,29.933c4.431-4.999,7.701-9.85,9.221-14.098
		c-1.198,1.672-1.684,3.127-2.557,4.634c0.16-1.289,1.419-2.843,1.905-4.298c0.063,0.118,0.063,0.118,0.124,0.237
		c0.264-0.287,0.141-0.525,0.731-0.979c-2.558,4.634-4.994,9.505-9.75,14.671c19.28-17.781,15.907-32.314-6.832-30.829
		c-16.423,0.939-38.172,9.144-57.445,21.348c-16.789,10.619-28.402,22.485-30.747,31.53c-1.655,7.184,2.023,11.915,11.257,13.025
		c18.979,2.415,57.318-13.596,77.087-32.834c10.146-9.905,14.224-18.789,9.975-23.829c-4.494-5.517-17.863-5.852-34.849-0.405
		c-20.163,6.483-42.102,19.911-52.772,32.798c-8.884,10.761-8.703,19.106,0.819,21.575c11.114,3.156,33.905-3.025,54.259-14.731
		c25.117-14.463,39.221-33.49,28.444-39.986c-10.264-6.307-38.939,1.254-62.081,16.356c-10.459,6.903-17.964,13.938-22.311,20.701
		c-9.769,15.436,6.688,20.959,32.834,11.688c12.85-4.669,26.021-11.914,36.189-20.177c20.021-16.353,18.034-29.794-3.053-27.503
		c-14.058,1.527-33.237,9.915-47.317,20.192c-17.356,12.719-22.83,26.091-11.391,29.08c6.137,1.503,15.814,0.277,26.647-3.503
		c16.028-5.705,32.552-16.039,40.643-25.938c6.828-8.343,6.407-14.757-0.871-16.878c-9.646-2.708-30.642,3.755-46.985,14.445
		c-6.796,4.411-11.923,8.864-15.703,13.525c-8.152,9.78-5.937,16.474,5.701,16.646c6.948-0.119,14.709-1.862,24.198-5.854
		c14.17-6.105,26.013-14.324,32.394-22.739c4.126-5.593,4.748-9.982,1.666-12.761c-4.718-4.347-19.243-2.126-34.206,4.839
		c-19.322,8.913-34.104,24.222-28.528,30.235c3.574,3.73,13.743,3.459,26.144-1.282c9.672-3.634,18.812-9.104,25.849-15.444
		c8.156-7.371,9.652-13.265,5.284-16.136c-6.529-3.864-24.778,0.729-39.106,10.53c-6.472,4.244-11.984,8.744-14.665,13.142
		c-4.894,8.097,1.311,12.131,13.98,9.512c9.309-1.938,19.854-7.078,28.238-13.211c6.815-5.175,11.125-10.41,11.545-14.393
		c0.315-4.984-5.231-6.945-15.193-4.669c-12.159,2.808-26.51,10.964-32.688,18.973c-6.849,9.108,1.149,13.419,16.4,7.81
		c11.751-4.401,23.734-13.147,25.168-19.159c0.729-3.389-2.253-5.166-6.35-5.915c0.651-0.336,1.037-0.385,1.751-0.602
		c-2.647,0.462-4.707,0.469-7.354,0.931c8.756-3.011,14.953-1.387,14.595,2.716c-0.216,3.576-3.608,8.19-9.834,12.909
		c-7.997,6.084-19.502,10.963-28.017,12.042c-8.577,0.96-11.704-2.702-8.475-8.435c3.148-5.09,9.779-10.622,18.188-15.109
		c9.321-5.111,18.71-7.693,25.396-7.526c7.194,0.357,9.484,3.998,5.992,10.017c-3.818,6.189-12.67,13.014-23.152,18.272
		c-19.34,9.673-36.561,9.065-33.749-0.673c1.962-6.585,12.539-15.658,25.119-22.449c11.99-6.336,23.112-8.758,31.529-8.43
		c8.092,0.497,9.122,5.691,4.714,12.335c-6.012,9.129-21.009,20.03-36.71,25.568c-8.431,2.841-16.253,4.465-21.898,3.912
		c0.816,0.785,3.403,0.203,4.81,0.532c-10.494,0.442-15.008-4.311-11.152-12.026c4.974-8.743,18.606-19.089,34.407-26.035
		c11.828-5.048,22.299-7.134,29.087-5.966c11.336,1.988,8.363,13.012-5.816,24.7c-15.095,12.307-37.389,21.85-52.184,21.948
		c-11.066,0.133-14.93-4.957-10.87-13.077c3.512-6.784,12.135-14.849,24.143-21.946c17.688-10.481,37.383-16.272,48.004-14.067
		c7.42,1.596,9.287,6.81,5.186,14.049c-5.645,9.842-21.046,21.554-38.86,29.391c-15.474,6.776-30.08,9.64-37.666,6.924
		c-7.017-2.407-8.293-8.078-2.685-16.395c10.623-16.178,42.378-33.765,65.032-37.014c23.043-3.299,28.855,8.77,9.449,26.313
		c-15.457,14.002-39.622,26.318-58.078,28.907c0.774-0.098,1.874-0.364,2.912-0.747c-12.141,2.043-22.537,1.077-24.262-4.662
		c-1.908-6.097,3.085-15.604,16.005-25.734c9.643-7.687,21.51-14.261,33.789-19.239c17.47-6.903,32.688-8.577,39.525-4.118
		c7.083,4.934,4.148,14.434-9.013,26.496c-16.515,15.152-43.266,28.046-63.271,30.833c-13.488,1.837-21.646-1.188-22.964-7.74
		c-1.36-7.434,7.867-19.125,22.15-29.808c10.947-8.359,24.828-15.822,38.188-20.303c-1.627,0.839-3.115,1.155-4.681,2.114
		c1.16-0.147,2.138-0.651,3.503-1.204c-0.265,0.287-0.979,0.504-0.654,0.336c28.429-10.447,52.826-8.718,45.746,7.139
		c0.261-2.696,0.582-5.273-0.136-7.463c1.619,4.74,1.284,10.485-5.465,18.187c2.256-2.821,3.087-5.208,5.729-8.079
		c-1.198,1.673-1.357,2.962-2.557,4.636c10.752-13.532,6.023-22.697-10.238-23.046c-15.304-0.09-36.505,6.779-56.412,18.555
		c-12.598,7.553-22.892,15.576-29.396,23.753c-10.814,13.413-8.348,22.99,6.938,23.842c15.612,0.684,40.455-7.91,60.4-21.214
		c10.989-7.477,19.348-15.253,23.958-22.305c-6.62,10.348-22.369,22.992-40.527,31.756c-19.461,9.438-39.118,13.702-49.661,10.854
		c-16.17-4.166-5.574-24.396,20.514-41.773c18.641-12.629,41.63-21.626,58.521-23.258c19.601-1.976,24.652,7.019,18.361,19.605
		c0.019-0.761,1.14-1.791,0.832-2.387c-1.909,4.298-7.501,9.446-10.895,14.06c3.497-3.613,6.609-7.176,8.943-10.641
		c0.186,0.356-0.73,0.979-0.607,1.217c10.667-15.296,1.965-24.97-20.895-21.314c-17.887,2.898-39.794,12.393-57.333,24.756
		c-16.299,11.571-26.259,24.244-24.916,32.44c1.653,11.201,24.682,11.072,51.8-1.109c20.421-9.178,39.02-22.69,45.739-34.443
		c4.912-8.863,2.82-15.317-6.333-17.074c-13.639-2.456-39.177,5.595-60.16,19.282c-18.497,12.104-29.004,26.113-25.912,33.707
		c3.875,9.906,31.418,6.545,57.433-7.78c16.751-9.095,30.098-20.799,34.315-30.208c5.455-12.608-7.862-17.641-30.47-11.101
		c-16.844,4.921-34.899,14.689-47.265,25.891c-17.432,15.772-15.165,28.163,4.621,26.543c14.629-1.216,35.092-9.514,50.543-20.667
		C293.292,259.425,295.449,257.682,297.34,256.06z"/>
</g>
<g id="Stars">
	<g>
		<path fill="#FFFFFF" d="M271.583,152.813c1.306,4.886-1.34,10.041-5.899,11.52c-4.564,1.474-9.319-1.295-10.624-6.183
			c-1.304-4.888,1.337-10.047,5.894-11.516C265.519,145.159,270.277,147.928,271.583,152.813z"/>
		<polygon fill="#FFFFFF" points="257.777,134.717 261.557,156.049 268.865,176.243 265.084,154.911 		"/>
		<polygon fill="#FFFFFF" points="243.935,161.741 263.821,157.373 282.701,149.221 262.813,153.595 		"/>
	</g>
	<g>
		<path fill="#E6D8BD" d="M347.455,47.854c1.306,4.885-1.34,10.04-5.899,11.519c-4.565,1.474-9.319-1.295-10.624-6.182
			c-1.303-4.888,1.338-10.048,5.895-11.517C341.391,40.2,346.149,42.969,347.455,47.854z"/>
		<polygon fill="#E6D8BD" points="333.649,29.759 337.429,51.09 344.737,71.284 340.955,49.953 		"/>
		<polygon fill="#E6D8BD" points="319.807,56.783 339.693,52.414 358.572,44.263 338.686,48.636 		"/>
	</g>
	<g>
		<path fill="#E2DDEE" d="M278.386,325.152c1.005,3.768-1.035,7.743-4.552,8.88c-3.521,1.137-7.188-0.996-8.191-4.765
			c-1.007-3.771,1.029-7.75,4.544-8.881C273.707,319.248,277.38,321.383,278.386,325.152z"/>
		<polygon fill="#E2DDEE" points="267.736,311.197 270.653,327.647 276.29,343.223 273.371,326.77 		"/>
		<polygon fill="#E2DDEE" points="257.062,332.036 272.398,328.666 286.959,322.381 271.622,325.753 		"/>
	</g>
	<g>
		<path fill="#FFFFFF" d="M72.297,354.9c1.651,6.172-1.692,12.691-7.456,14.553c-5.763,1.861-11.776-1.634-13.423-7.81
			c-1.647-6.177,1.69-12.693,7.449-14.553C64.636,345.228,70.646,348.723,72.297,354.9z"/>
		<polygon fill="#FFFFFF" points="54.854,332.036 59.628,358.99 68.862,384.504 64.084,357.552 		"/>
		<polygon fill="#FFFFFF" points="37.364,366.181 62.494,360.659 86.346,350.361 61.218,355.885 		"/>
	</g>
	<g>
		<path fill="#E2DDEE" d="M467.927,258.148c1.651,6.172-1.691,12.691-7.455,14.553s-11.776-1.634-13.424-7.811
			c-1.647-6.176,1.689-12.692,7.449-14.552C460.265,248.476,466.275,251.971,467.927,258.148z"/>
		<polygon fill="#E2DDEE" points="450.482,235.284 455.258,262.238 464.492,287.752 459.714,260.8 		"/>
		<polygon fill="#E2DDEE" points="432.993,269.429 458.123,263.907 481.976,253.609 456.848,259.133 		"/>
	</g>
	<g>
		<path fill="#E2DDEE" d="M271.85,459.405c0.63,2.354-0.645,4.832-2.838,5.543c-2.196,0.712-4.486-0.619-5.115-2.974
			c-0.629-2.354,0.645-4.836,2.839-5.545C268.932,455.718,271.223,457.052,271.85,459.405z"/>
		<polygon fill="#E2DDEE" points="265.202,450.697 267.024,460.965 270.541,470.684 268.723,460.416 		"/>
		<polygon fill="#E2DDEE" points="258.542,463.704 268.118,461.598 277.203,457.678 267.63,459.78 		"/>
	</g>
	<g>
		<path fill="#E2DDEE" d="M452.13,376.514c0.631,2.354-0.644,4.832-2.837,5.543c-2.196,0.712-4.486-0.619-5.115-2.974
			c-0.629-2.354,0.645-4.836,2.839-5.545C449.213,372.826,451.504,374.16,452.13,376.514z"/>
		<polygon fill="#E2DDEE" points="445.483,367.806 447.306,378.073 450.822,387.792 449.004,377.524 		"/>
		<polygon fill="#E2DDEE" points="438.823,380.813 448.398,378.706 457.484,374.786 447.911,376.889 		"/>
	</g>
	<g id="Star_11_">
		<path fill="#EAD686" d="M67.787,158.06c0.936,3.509-0.96,7.212-4.235,8.271s-6.692-0.929-7.628-4.437
			c-0.938-3.511,0.96-7.215,4.234-8.271C63.434,152.563,66.849,154.55,67.787,158.06z"/>
		<polygon fill="#EAD686" points="57.875,145.068 60.588,160.387 65.833,174.885 63.121,159.567 		"/>
		<polygon fill="#EAD686" points="47.935,164.47 62.216,161.333 75.772,155.48 61.491,158.62 		"/>
	</g>
	<g>
		<path fill="#DFA5CA" d="M261.103,247.781c1.006,3.768-1.034,7.743-4.551,8.884c-3.521,1.136-7.187-0.999-8.192-4.769
			c-1.006-3.77,1.03-7.749,4.546-8.882C256.425,241.878,260.095,244.013,261.103,247.781z"/>
		<polygon fill="#DFA5CA" points="250.455,233.825 253.368,250.276 259.006,265.851 256.089,249.399 		"/>
		<polygon fill="#DFA5CA" points="239.778,254.667 255.115,251.297 269.676,245.011 254.338,248.384 		"/>
	</g>
</g>
</svg>
